<?xml version="1.0" standalone="no"?><!DOCTYPE svg PUBLIC "-//W3C//DTD SVG 1.1//EN" "http://www.w3.org/Graphics/SVG/1.1/DTD/svg11.dtd"><svg t="1517739984601" class="icon" style="" viewBox="0 0 1024 1024" version="1.1" xmlns="http://www.w3.org/2000/svg" p-id="14137" xmlns:xlink="http://www.w3.org/1999/xlink" width="200" height="200"><defs><style type="text/css"></style></defs><path d="M691.579493 490.835981 530.91735 490.835981 530.91735 330.174861c0-10.880815-8.820899-19.700691-19.701714-19.700691-10.867512 0-19.688411 8.820899-19.688411 19.700691l0 160.662143L330.852802 490.837005c-10.857279 0-19.689435 8.819876-19.689435 19.699668 0 10.881838 8.832156 19.701714 19.689435 19.701714l160.674423 0 0 160.66112c0 10.881838 8.820899 19.702738 19.688411 19.702738 10.880815 0 19.701714-8.820899 19.701714-19.702738L530.91735 530.238386l160.662143 0c10.879792 0 19.700691-8.820899 19.700691-19.701714C711.280184 499.656881 702.459285 490.835981 691.579493 490.835981z" p-id="14138" fill="#bfbfbf"></path><path d="M511.215636 63.882959c-246.27501 0-446.648596 200.366424-446.648596 446.653713 0 246.276033 200.373587 446.655759 446.648596 446.655759 246.287289 0 446.653713-200.379727 446.653713-446.655759C957.870372 264.249383 757.502925 63.882959 511.215636 63.882959zM511.215636 932.379303c-232.608755 0-421.833421-189.233875-421.833421-421.842631 0-232.607732 189.225689-421.839561 421.833421-421.839561 232.607732 0 421.839561 189.232852 421.839561 421.839561C933.05622 743.145427 743.823368 932.379303 511.215636 932.379303z" p-id="14139" fill="#bfbfbf"></path></svg>