<?xml version="1.0" standalone="no"?><!DOCTYPE svg PUBLIC "-//W3C//DTD SVG 1.1//EN" "http://www.w3.org/Graphics/SVG/1.1/DTD/svg11.dtd"><svg t="1517739615278" class="icon" style="" viewBox="0 0 1024 1024" version="1.1" xmlns="http://www.w3.org/2000/svg" p-id="5207" xmlns:xlink="http://www.w3.org/1999/xlink" width="200" height="200"><defs><style type="text/css"></style></defs><path d="M933.24502 888.319831c-13.237489-32.051997-32.757055-62.176085-58.015322-89.535199-24.876574-26.945699-54.768371-50.622958-88.847537-70.373791-52.532447-30.446429-112.38051-50.208519-175.809122-58.344826 58.585303-13.30912 112.366184-42.843784 155.889443-86.367043 60.882626-60.882626 94.412276-141.829216 94.412277-227.930199s-33.529651-167.047574-94.412277-227.9302c-60.881602-60.882626-141.829216-94.411253-227.929176-94.411253s-167.047574 33.529651-227.929176 94.411253-94.411253 141.829216-94.411253 227.9302 33.529651 167.047574 94.411253 227.930199c44.527123 44.526099 99.791797 74.399477 159.950946 87.249133-60.981886 8.632611-118.502951 28.074406-169.210843 57.462736-34.079166 19.750833-63.971987 43.427068-88.848561 70.373791-25.25929 27.359115-44.777833 57.483202-58.014298 89.535199-9.679453 23.435759-6.969739 50.118468 7.248077 71.373561 14.500249 21.677719 38.681998 34.618449 64.686255 34.618449h634.893958c26.004257 0 50.187029-12.941753 64.688301-34.619472 14.216793-21.25407 16.926508-47.936779 7.247055-71.372538z" fill="#ffffff" p-id="5208"></path></svg>