<?xml version="1.0" standalone="no"?><!DOCTYPE svg PUBLIC "-//W3C//DTD SVG 1.1//EN" "http://www.w3.org/Graphics/SVG/1.1/DTD/svg11.dtd"><svg t="1517739923748" class="icon" style="" viewBox="0 0 1024 1024" version="1.1" xmlns="http://www.w3.org/2000/svg" p-id="11898" xmlns:xlink="http://www.w3.org/1999/xlink" width="200" height="200"><defs><style type="text/css"></style></defs><path d="M512 0C229.216 0 0 229.216 0 512c0 282.768 229.216 512 512 512 282.752 0 512-229.232 512-512C1024 229.216 794.752 0 512 0zM512 992C246.896 992 32 777.088 32 512 32 246.896 246.896 32 512 32c265.056 0 480 214.896 480 480C992 777.088 777.056 992 512 992z" p-id="11899" fill="#bfbfbf"></path><path d="M512 607.552c79.408 0 144-62.832 144-140.064l0-135.872c0-77.232-64.592-140.064-144-140.064-79.392 0-144 62.832-144 140.064l0 135.872C368 544.72 432.608 607.552 512 607.552zM400 331.616c0-59.584 50.24-108.064 112-108.064 61.744 0 112 48.48 112 108.064l0 135.872c0 59.584-50.256 108.064-112 108.064-61.76 0-112-48.48-112-108.064L400 331.616z" p-id="11900" fill="#bfbfbf"></path><path d="M752 483.488c0-8.832-7.152-16-16-16s-16 7.168-16 16c0 101.616-93.312 184.288-208 184.288-114.688 0-208-82.672-208-184.288 0-8.832-7.168-16-16-16s-16 7.168-16 16c0 114.384 99.12 208.08 224 215.552l0 111.632-110 0c-8.848 0-16 7.152-16 16s7.152 16 16 16l252 0c8.848 0 16-7.152 16-16s-7.152-16-16-16L528 810.672 528 699.04C652.88 691.584 752 597.888 752 483.488z" p-id="11901" fill="#bfbfbf"></path></svg>